HIERARCHY
ROOT Hips
{
	OFFSET 0.000000 0.000000 0.000000
	CHANNELS 6 Xposition Yposition Zposition Zrotation Yrotation Xrotation 
	JOINT LHipJoint
	{
		OFFSET 0.000000 0.000000 0.000000
		CHANNELS 3 Zrotation Yrotation Xrotation
		JOINT LeftUpLeg
		{
			OFFSET 1.363060 -1.794630 0.839290
			CHANNELS 3 Zrotation Yrotation Xrotation
			JOINT LeftLeg
			{
				OFFSET 2.448110 -6.726130 0.000000
				CHANNELS 3 Zrotation Yrotation Xrotation
				JOINT LeftFoot
				{
					OFFSET 2.562200 -7.039590 0.000000
					CHANNELS 3 Zrotation Yrotation Xrotation
					JOINT LeftToeBase
					{
						OFFSET 0.157640 -0.433110 2.322550
						CHANNELS 3 Zrotation Yrotation Xrotation
						End Site
						{
							OFFSET 0.000000 0.000000 0.000000
						}
					}
				}
			}
		}
	}
	JOINT RHipJoint
	{
		OFFSET 0.000000 0.000000 0.000000
		CHANNELS 3 Zrotation Yrotation Xrotation
		JOINT RightUpLeg
		{
			OFFSET -1.305520 -1.794630 0.839290
			CHANNELS 3 Zrotation Yrotation Xrotation
			JOINT RightLeg
			{
				OFFSET -2.542530 -6.985550 0.000000
				CHANNELS 3 Zrotation Yrotation Xrotation
				JOINT RightFoot
				{
					OFFSET -2.568260 -7.056230 0.000000
					CHANNELS 3 Zrotation Yrotation Xrotation
					JOINT RightToeBase
					{
						OFFSET -0.164730 -0.452590 2.363150
						CHANNELS 3 Zrotation Yrotation Xrotation
						End Site
						{
							OFFSET 0.000000 0.000000 0.000000
						}
					}
				}
			}
		}
	}
	JOINT LowerBack
	{
		OFFSET 0.000000 0.000000 0.000000
		CHANNELS 3 Zrotation Yrotation Xrotation
		JOINT Spine
		{
			OFFSET 0.028270 2.035590 -0.193380
			CHANNELS 3 Zrotation Yrotation Xrotation
			JOINT Spine1
			{
				OFFSET 0.056720 2.048850 -0.042750
				CHANNELS 3 Zrotation Yrotation Xrotation
				JOINT Neck
				{
					OFFSET 0.000000 0.000000 0.000000
					CHANNELS 3 Zrotation Yrotation Xrotation
					JOINT Neck1
					{
						OFFSET -0.054170 1.746240 0.172020
						CHANNELS 3 Zrotation Yrotation Xrotation
						JOINT Head
						{
							OFFSET 0.104070 1.761360 -0.123970
							CHANNELS 3 Zrotation Yrotation Xrotation
							End Site
							{
								OFFSET 0.000000 0.000000 0.000000
							}
						}
					}
				}
				JOINT LeftShoulder
				{
					OFFSET 0.000000 0.000000 0.000000
					CHANNELS 3 Zrotation Yrotation Xrotation
					JOINT LeftArm
					{
						OFFSET 3.362410 1.200890 -0.311210
						CHANNELS 3 Zrotation Yrotation Xrotation
						JOINT LeftForeArm
						{
							OFFSET 4.983000 -0.000000 -0.000000
							CHANNELS 3 Zrotation Yrotation Xrotation
							JOINT LeftHand
							{
								OFFSET 3.483560 -0.000000 -0.000000
								CHANNELS 3 Zrotation Yrotation Xrotation
								JOINT LeftFingerBase
								{
									OFFSET 0.000000 0.000000 0.000000
									CHANNELS 3 Zrotation Yrotation Xrotation
									JOINT LeftHandIndex1
									{
										OFFSET 0.715260 -0.000000 -0.000000
										CHANNELS 3 Zrotation Yrotation Xrotation
										End Site
										{
											OFFSET 0.000000 0.000000 0.000000
										}
									}
								}
								JOINT LThumb
								{
									OFFSET 0.000000 0.000000 0.000000
									CHANNELS 3 Zrotation Yrotation Xrotation
									End Site
									{
										OFFSET 0.000000 0.000000 0.000000
									}
								}
							}
						}
					}
				}
				JOINT RightShoulder
				{
					OFFSET 0.000000 0.000000 0.000000
					CHANNELS 3 Zrotation Yrotation Xrotation
					JOINT RightArm
					{
						OFFSET -3.136600 1.374050 -0.404650
						CHANNELS 3 Zrotation Yrotation Xrotation
						JOINT RightForeArm
						{
							OFFSET -5.241900 -0.000000 -0.000000
							CHANNELS 3 Zrotation Yrotation Xrotation
							JOINT RightHand
							{
								OFFSET -3.444170 -0.000000 -0.000000
								CHANNELS 3 Zrotation Yrotation Xrotation
								JOINT RightFingerBase
								{
									OFFSET 0.000000 0.000000 0.000000
									CHANNELS 3 Zrotation Yrotation Xrotation
									JOINT RightHandIndex1
									{
										OFFSET -0.622530 -0.000000 -0.000000
										CHANNELS 3 Zrotation Yrotation Xrotation
										End Site
										{
											OFFSET 0.000000 0.000000 0.000000
										}
									}
								}
								JOINT RThumb
								{
									OFFSET 0.000000 0.000000 0.000000
									CHANNELS 3 Zrotation Yrotation Xrotation
									End Site
									{
										OFFSET 0.000000 0.000000 0.000000
									}
								}
							}
						}
					}
				}
			}
		}
	}
}
MOTION
Frames: 8
Frame Time: 0.008333
0.457626 17.731823 -1.096961 -147.324952 82.602472 -116.497379 -13.110126 1.105028 -1.158977 -9.007812 0.511836 -13.679578 -0.714889 0.221836 14.762866 1.668556 11.744386 3.909437 2.411900 0.000000 -32.409100 6.123258 0.061498 2.851281 2.937491 9.549078 -47.510395 2.803740 0.145736 12.031309 -0.505510 -3.515830 5.688688 -1.803800 0.000000 -58.087900 7.365369 -4.328482 1.478354 1.990571 -4.697785 -2.546597 -2.104527 -4.762862 1.010232 0.377844 -17.185869 -4.523300 -2.267495 -0.207959 0.655628 0.000000 0.000000 0.000000 10.235771 6.823479 -2.782261 -74.157693 -11.840908 16.463446 -178.520069 -58.075597 179.914423 8.700740 -4.776070 -0.436864 -0.328735 0.817200 -0.000000 0.000000 0.000000 0.000000 0.000000 0.000000 0.000000 -3.292199 -15.596011 -0.784099 61.263965 -36.743274 15.540940 179.873334 84.700522 179.993824 -0.556037 11.157798 -0.053288 -0.020367 -0.298884 -0.000000 0.000000 0.000000 0.000000 0.000000 0.000000 0.000000 
0.709142 17.719972 -1.101985 -147.874346 82.575396 -117.234037 -13.147101 1.176972 -1.469161 -9.187974 1.305331 -13.374110 -0.644949 0.371851 16.852362 1.859105 12.969670 3.720222 2.612500 0.000000 -29.148800 6.119431 0.121252 2.927684 2.673428 9.528511 -47.004464 2.993890 0.420637 9.321146 -0.195369 -2.263253 6.797172 -1.515600 0.000000 -58.486699 7.388800 -4.415928 1.739165 1.993206 -4.780425 -2.530236 -2.131279 -4.843259 0.873690 0.466792 -17.122815 -4.537244 -2.232567 -0.205189 0.650451 0.000000 0.000000 0.000000 10.439362 6.533189 -2.717435 -73.989233 -10.668398 16.861756 -178.612810 -58.309384 179.913685 8.829949 -4.650930 -0.432113 -0.327297 0.803900 -0.000000 0.000000 0.000000 0.000000 0.000000 0.000000 0.000000 -3.371518 -15.383975 -0.774268 61.737566 -37.573173 14.583335 179.837017 83.491952 179.994301 -0.216951 11.051653 -0.018334 -0.028569 -0.305038 -0.000000 0.000000 0.000000 0.000000 0.000000 0.000000 0.000000 
0.959628 17.697132 -1.105893 -148.370907 82.577072 -117.986222 -13.176623 1.254033 -1.793844 -9.377862 2.164573 -13.174814 -0.585935 0.548048 19.379726 2.038405 14.079741 3.386221 2.747600 -0.000000 -26.555000 6.139284 0.188322 2.954150 2.467493 9.447611 -46.559929 3.131094 0.611204 7.327095 0.059825 -1.162723 7.753004 -1.222800 -0.000000 -58.882800 7.386814 -4.493001 2.049153 1.979766 -4.850938 -2.502577 -2.199127 -4.908687 0.730671 0.609988 -16.987941 -4.546246 -2.212466 -0.203422 0.646418 0.000000 0.000000 0.000000 10.514119 6.270479 -2.631997 -73.793848 -9.522214 17.339961 -178.686812 -58.689583 179.912871 9.000476 -4.531611 -0.429437 -0.328935 0.790016 0.000000 0.000000 0.000000 0.000000 0.000000 0.000000 0.000000 -3.334067 -15.108385 -0.763589 62.343743 -38.272585 13.566181 179.803734 82.373738 179.994348 0.055963 10.946316 0.009429 -0.035745 -0.311390 -0.000000 0.000000 0.000000 0.000000 0.000000 0.000000 0.000000 
1.208972 17.663046 -1.108323 -148.824727 82.614033 -118.762683 -13.195576 1.339301 -2.128944 -9.577889 3.056347 -13.053907 -0.533890 0.751211 22.293746 2.203781 15.076879 2.963273 2.824699 0.000000 -24.632800 6.183792 0.255052 2.933915 2.315909 9.314829 -46.187576 3.217935 0.712763 6.078415 0.259192 -0.223823 8.497630 -0.941900 0.000000 -59.253400 7.350614 -4.558002 2.403032 1.948608 -4.907224 -2.462849 -2.307002 -4.956966 0.588280 0.805548 -16.799129 -4.552050 -2.204414 -0.202429 0.642972 0.000000 0.000000 0.000000 10.465033 6.051288 -2.529135 -73.564764 -8.434374 17.891184 -178.740510 -59.227300 179.912277 9.184571 -4.423229 -0.427945 -0.332509 0.775615 -0.000000 0.000000 0.000000 0.000000 0.000000 0.000000 0.000000 -3.192281 -14.790792 -0.754562 63.077924 -38.811933 12.522854 179.774609 81.351255 179.994278 0.244789 10.860048 0.028403 -0.041622 -0.318273 -0.000000 0.000000 0.000000 0.000000 0.000000 0.000000 0.000000 
1.457762 17.617010 -1.109968 -149.057986 82.658953 -119.355210 -13.222965 1.424342 -2.471407 -9.727074 4.003714 -13.066263 -0.483229 0.982850 25.601102 2.346335 15.912415 2.472068 2.835300 0.000000 -23.342500 6.233299 0.298749 2.904885 2.198579 9.245529 -45.878506 3.251918 0.743232 5.459914 0.387172 0.416218 9.065761 -0.735800 0.000000 -59.702700 7.319917 -4.605414 2.763363 1.909833 -4.945641 -2.417807 -2.449915 -4.985183 0.453777 1.040043 -16.575694 -4.557028 -2.205060 -0.201965 0.639676 0.000000 0.000000 0.000000 10.287850 5.886055 -2.410152 -73.308273 -7.417361 18.499861 -178.773287 -59.932461 179.912276 9.345585 -4.317814 -0.425249 -0.336592 0.760345 -0.000000 0.000000 0.000000 0.000000 0.000000 0.000000 0.000000 -2.975459 -14.449089 -0.748710 63.915964 -39.175157 11.490307 179.749847 80.419232 179.994050 0.352479 10.807579 0.039187 -0.046251 -0.325953 -0.000000 0.000000 0.000000 0.000000 0.000000 0.000000 0.000000 
1.706106 17.558395 -1.110617 -149.107457 82.714862 -119.796392 -13.255154 1.512006 -2.810801 -9.833360 4.957907 -13.182970 -0.426560 1.240110 29.234138 2.469104 16.622405 1.948296 2.797300 0.000000 -22.561500 6.289936 0.319728 2.866946 2.109969 9.228546 -45.645252 3.238434 0.702788 5.483578 0.453101 0.791809 9.401965 -0.603801 -0.000000 -60.147300 7.285972 -4.635267 3.119999 1.863006 -4.965691 -2.368237 -2.621639 -4.993080 0.333245 1.306528 -16.344565 -4.565347 -2.210402 -0.201700 0.635498 0.000000 0.000000 0.000000 10.002735 5.778484 -2.280158 -73.035938 -6.476632 19.140322 -178.788894 -60.810912 179.913209 9.444690 -4.216703 -0.419763 -0.339321 0.744043 -0.000000 0.000000 0.000000 0.000000 0.000000 0.000000 0.000000 -2.704638 -14.109792 -0.748336 64.830077 -39.344196 10.517796 179.729891 79.573995 179.993613 0.383798 10.803427 0.042582 -0.049775 -0.334710 -0.000000 0.000000 0.000000 0.000000 0.000000 0.000000 0.000000 
1.954457 17.486517 -1.110843 -148.891431 82.764770 -119.987321 -13.300904 1.597942 -3.137661 -9.871069 5.900656 -13.413298 -0.355924 1.519477 33.149794 2.572939 17.219399 1.403907 2.718600 0.000000 -22.145700 6.343364 0.311949 2.834223 2.050013 9.301057 -45.488165 3.181924 0.603056 6.086470 0.459078 0.888089 9.499955 -0.559500 -0.000000 -60.593300 7.270103 -4.645557 3.450482 1.814417 -4.966162 -2.318198 -2.815175 -4.980061 0.231786 1.593409 -16.130992 -4.581430 -2.217135 -0.201371 0.629436 0.000000 0.000000 0.000000 9.619522 5.727093 -2.142189 -72.766056 -5.604994 19.780901 -178.791878 -61.871383 179.915368 9.446673 -4.116660 -0.409802 -0.339124 0.726424 -0.000000 0.000000 0.000000 0.000000 0.000000 0.000000 0.000000 -2.403783 -13.795268 -0.754545 65.780543 -39.308861 9.650029 179.714772 78.812811 179.992967 0.357911 10.853509 0.040582 -0.052524 -0.344628 -0.000000 0.000000 0.000000 0.000000 0.000000 0.000000 0.000000 
2.203334 17.400902 -1.111094 -148.392919 82.797428 -119.894156 -13.363115 1.680742 -3.438208 -9.836518 6.798546 -13.761035 -0.264222 1.815387 37.293820 2.662143 17.735362 0.845121 2.610000 0.000000 -21.946000 6.388974 0.276445 2.812695 2.030130 9.457615 -45.434073 3.090676 0.450521 7.249181 0.415161 0.757236 9.324651 -0.587900 0.000000 -61.001500 7.282303 -4.635957 3.733083 1.767727 -4.947222 -2.271854 -3.024267 -4.946894 0.153114 1.892389 -15.957210 -4.609773 -2.223130 -0.200810 0.620622 0.000000 0.000000 0.000000 9.150731 5.724677 -1.999431 -72.518418 -4.784792 20.385857 -178.789020 -63.121559 179.918914 9.326596 -4.012731 -0.394173 -0.334847 0.707128 0.000000 0.000000 0.000000 0.000000 0.000000 0.000000 0.000000 -2.086906 -13.525037 -0.768480 66.725589 -39.064532 8.925196 179.704152 78.139246 179.992159 0.300255 10.953573 0.035489 -0.054864 -0.355562 -0.000000 0.000000 0.000000 0.000000 0.000000 0.000000 0.000000 
